# xmcd
#
# Track frame offsets:
# 150
# 16468
# 35458
# 49088
# 64352
# 82261
# 96377
# 111331
# 134335
# 146066
# 164699
# 180247
# 191267
# 207931
# 222787
# 237183
# 251526
# 265238
# 276507
# 289487
# 304471
# 318453
#
# Disc length: 4415 seconds
#
# Revision: 0
# Processed by: cddbd v1.4PL0 Copyright (c) Steve Scherf et al.
# Submitted via: Audion 3.0.2 (http://www.panic.com/audion/)
#
DISCID=5f113d16
DTITLE=Mixed - Barbecue #1
DYEAR=1900
DGENRE=
TTITLE0=Lady Blue
TTITLE1=Reminiscing
TTITLE2=Cracklin' Rose
TTITLE3=It's just a little-J.Page
TTITLE4=I love you always-Donna Lewis
TTITLE5=I love the nightlife
TTITLE6=Car Wash
TTITLE7=Sunshine reggae
TTITLE8=nescafe Calypso
TTITLE9=Waiting for tonight
TTITLE10=Puttin' on the ritz
TTITLE11=Sugar Town
TTITLE12=Tuxedio Junction
TTITLE13=hands Up
TTITLE14=I love the Nightlife
TTITLE15=Mac the knife
TTITLE16=Hello Dolly
TTITLE17=Midnight in Mosgow
TTITLE18=Cabaret
TTITLE19=Does your chewing gum lose it's..
TTITLE20=Stray Cat Strut
TTITLE21=Montego Bay
EXTD=
EXTT0=
EXTT1=
EXTT2=
EXTT3=
EXTT4=
EXTT5=
EXTT6=
EXTT7=
EXTT8=
EXTT9=
EXTT10=
EXTT11=
EXTT12=
EXTT13=
EXTT14=
EXTT15=
EXTT16=
EXTT17=
EXTT18=
EXTT19=
EXTT20=
EXTT21=
PLAYORDER=
